<?xml version="1.0" encoding="utf-8" ?><svg xmlns="http://www.w3.org/2000/svg" xmlns:xlink="http://www.w3.org/1999/xlink" width="1024" height="1024" viewBox="0 0 1024 1024"><path fill="#F6EFD2" d="M0 0L1024 0L1024 1024L0 1024L0 0Z"/><path fill="#C4132B" d="M270.113 320.371C320.435 324.267 370.731 328.494 420.997 333.053C456.325 336.013 492.725 338.245 527.919 341.514C578.524 346.351 629.172 350.726 679.857 354.636C703.408 356.582 727.798 359.338 751.313 360.582C752.157 360.326 752.894 360.1 753.759 359.893C758.082 359.908 761.808 360.53 766.026 360.526L766.092 360.24L766.056 360.13L766.303 359.943C766.283 359.863 766.264 359.783 766.245 359.704L766.314 359.702C766.571 360.187 766.488 360.787 766.663 361.302C767.937 361.739 772.157 361.636 772.712 362.092L772.747 362.203C772.364 362.381 772.321 362.452 771.668 362.688C777.416 363.599 786.185 363.994 792.334 364.655C785.933 428.201 777.41 492.222 770.629 555.754L759.129 661.439C757.634 674.109 756.061 692.093 754.001 704.174C704.246 701.042 652.651 695.892 602.772 691.86L565.761 688.799C561.484 688.448 549.954 687.301 546.129 687.6C545.48 687.933 544.835 688.274 544.194 688.623C542.667 688.399 541.276 688.307 539.753 688.126L538.832 686.762C515.321 684.354 492.008 682.784 468.528 680.718L307.745 666.634C283.189 664.491 254.576 662.956 230.521 660.087C231.926 652.722 232.979 640.664 233.876 633.005L239.687 583.596C239.461 582.346 239.68 580.382 238.681 579.972L238.418 580.127C237.458 578.337 233.945 563.104 233.267 560.308L221.821 513.057C213.03 476.473 203.116 439.689 194.475 403.193C215.021 398.456 240.281 392.319 260.564 386.632C260.502 386.512 260.44 386.392 260.378 386.272C261.007 385.797 261.783 385.693 262.559 385.48L270.113 320.371Z"/><path fill="#F6EFD2" d="M194.475 403.193C215.021 398.456 240.281 392.319 260.564 386.632C260.515 389.786 259.254 398.728 259.515 400.231C260.131 401.47 259.709 400.941 259.397 402.12C259.594 402.389 260.236 402.286 260.429 402.289C258.613 415.642 257.432 429.721 255.913 443.19C251.366 485.279 246.54 527.338 241.433 569.363L240.191 567.606L238.681 579.972L238.418 580.127C237.458 578.337 233.945 563.104 233.267 560.308L221.821 513.057C213.03 476.473 203.116 439.689 194.475 403.193Z"/><path fill="#E9DCC4" d="M194.475 403.193C215.021 398.456 240.281 392.319 260.564 386.632C260.515 389.786 259.254 398.728 259.515 400.231C243.558 404.287 226.275 408.891 210.258 412.275C218.303 443.952 226.083 475.695 233.599 507.502C236.362 518.866 240.623 532.918 242.427 544.219C242.931 547.375 240.639 563.383 240.191 567.606L238.681 579.972L238.418 580.127C237.458 578.337 233.945 563.104 233.267 560.308L221.821 513.057C213.03 476.473 203.116 439.689 194.475 403.193Z"/><path fill="#0A0101" d="M260.564 386.632C260.502 386.512 260.44 386.392 260.378 386.272C261.007 385.797 261.783 385.693 262.559 385.48C262.306 391.485 261.229 396.531 260.429 402.289C260.236 402.286 259.594 402.389 259.397 402.12C259.709 400.941 260.131 401.47 259.515 400.231C259.254 398.728 260.515 389.786 260.564 386.632Z"/><path fill="#0A0101" d="M766.026 360.526L766.092 360.24L766.056 360.13L766.303 359.943C766.283 359.863 766.264 359.783 766.245 359.704L766.314 359.702C766.571 360.187 766.488 360.787 766.663 361.302C767.937 361.739 772.157 361.636 772.712 362.092L772.747 362.203C772.364 362.381 772.321 362.452 771.668 362.688C765.475 362.329 757.263 361.87 751.313 360.582C752.157 360.326 752.894 360.1 753.759 359.893C758.082 359.908 761.808 360.53 766.026 360.526Z"/><path fill="#0A0101" d="M240.191 567.606L241.433 569.363C241.029 573.704 240.269 579.186 239.687 583.596C239.461 582.346 239.68 580.382 238.681 579.972L240.191 567.606Z"/><path fill="#0A0101" d="M538.832 686.762C541.5 687.086 543.354 687.143 546.129 687.6C545.48 687.933 544.835 688.274 544.194 688.623C542.667 688.399 541.276 688.307 539.753 688.126L538.832 686.762Z"/><path fill="#0A0101" d="M457.884 390.733C461.445 390.025 461.181 393.002 461.966 395.706C476.711 446.527 490.732 497.578 505.258 548.467C506.752 553.701 509.434 567.366 511.891 571.182L512.501 571.049C515.611 562.802 518.503 550.405 520.867 541.656L532.659 499.626L555.156 420.144C557.831 410.569 560.947 400.704 563.354 391.15L681.878 391.02C677.341 408.267 665.397 428.301 649.217 436.146C621.935 449.374 608.34 460.811 593.835 488.312C587.908 499.996 584.691 512.106 580.817 524.543C574.025 546.345 568.419 568.643 561.839 590.485C559.336 598.794 556.587 611.769 552.587 618.956C547.381 628.31 536.93 636.436 526.505 639.171C513.178 642.667 497.518 641.538 485.41 634.663C480.058 631.624 473.164 625.303 470.342 619.975C464.976 610.255 463.547 598.964 460.071 588.562C443.712 539.605 441.786 478.06 394.254 447.218C388.926 443.76 383.67 440.974 378.247 438.005C366.919 431.806 357.5 423.24 350.757 412.209C346.461 405.291 344.547 399.126 342.419 391.339C369.122 390.873 396.16 391.416 422.886 391.087C434.469 390.945 446.345 391.233 457.884 390.733Z"/><path fill="#E9DCC4" d="M345.29 392.704L459.114 392.535C465.703 411.621 472.087 437.286 477.68 457.219L511.922 578.153C529.746 516.386 547.246 454.525 564.42 392.574C602.65 392.998 642.009 391.843 680.046 392.77C674.98 409.753 668.203 419.866 654.446 430.827C640.886 440.876 628.495 442.872 614.865 456.382C590.862 480.175 585.32 504.173 576.282 534.74C571.074 552.4 566.006 570.1 561.078 587.839C554.259 611.736 551.844 631.649 523.524 638.188C499.188 643.807 472.754 632.803 466.792 607.008C465.577 601.751 463.768 595.911 462.299 590.637L449.123 542.839C442.59 518.774 438.013 495.829 423.869 474.844C410.177 454.528 396.078 445.666 375.32 434.628C361.711 427.392 348.623 410.006 345.031 395.226C344.659 393.694 344.482 393.917 345.29 392.704Z"/><path fill="#E9DCC4" d="M477.257 335.712C498.273 329.379 524.586 323.449 546.041 318.153L647.396 292.757C667.629 288.022 687.803 283.04 707.914 277.811C719.377 274.934 731.763 272.031 743.026 268.733L757.091 325.404C758.143 329.792 764.799 358.164 766.026 360.526C761.808 360.53 758.082 359.908 753.759 359.893C752.735 359.518 752.175 359.597 751.821 358.421C744.583 334.391 740.316 308.481 733.223 284.481L571.388 324.84C559.537 327.668 547.714 330.615 535.922 333.68C533.032 334.415 518.011 338.314 516.383 338.366C509.267 338.589 483.062 337.115 477.257 335.712Z"/><path fill="#E9DCC4" d="M259.167 664.333C263.668 664.992 268.198 665.425 272.742 665.631C279.093 689.724 285.003 715.077 291.095 739.361C306.733 734.684 325.013 730.725 341.042 726.653C375.055 717.781 409.167 709.298 443.372 701.203C464.071 696.236 485.267 689.81 506.13 686.203C512.209 685.151 532.81 687.591 539.753 688.126C541.276 688.307 542.667 688.399 544.194 688.623C541.404 690.185 533.494 691.726 529.986 692.63C447.437 713.918 364.17 733.02 281.709 754.535C273.476 725.772 266.381 693.696 259.167 664.333Z"/><path fill="#E9DCC4" d="M785.214 442.897C787.015 445.004 825.488 602.412 830.387 620.73C825.33 621.415 815.678 624.07 810.545 625.357L775.164 634.196C771.629 635.194 766.988 636.064 763.327 636.855C763.931 632.386 764.492 628.316 765.337 623.874C770.248 622.113 778.102 620.432 783.421 619.129C793.696 616.665 803.926 614.018 814.107 611.19L791.779 520.74C789.086 509.938 783.04 488.979 781.758 478.743C781.269 474.839 784.559 448.418 785.214 442.897Z"/></svg>