<?xml version="1.0" encoding="utf-8" ?><svg xmlns="http://www.w3.org/2000/svg" xmlns:xlink="http://www.w3.org/1999/xlink" width="1024" height="1024" viewBox="0 0 1024 1024"><path fill="#BC131A" d="M0 0L1024 0L1024 1024L0 1024L0 0Z"/><path fill="#E7E5E0" d="M769.412 156.215C803.703 154.613 836.846 169.114 863.361 189.976C877.656 201.224 889.476 215.306 899.377 230.493C892.761 228.814 886.976 228.46 880.153 228.339C814.795 227.181 769.807 284.935 752.636 342.281C750.525 349.331 748.064 356.498 745.78 363.512L720.56 440.871L625.771 732.88C621.377 746.023 617.087 759.2 612.9 772.411C608.473 786.454 603.643 804.215 596.576 816.895C579.632 847.298 545.345 866.794 511.046 866.609C478.838 866.171 448.787 850.339 430.211 824.024C418.393 807.343 413.969 787.045 407.711 767.619L390.693 714.845L302.773 442.549L276.98 362.949C263.052 320.559 255.447 294.62 222.934 261.579C217.246 255.969 212.513 251.722 205.874 247.154C182.18 231.082 153.123 224.955 124.958 230.093C133.787 217.854 137.525 211.888 148.658 201.008C177.681 172.641 216.896 155.549 257.876 156.613C267.607 156.823 277.268 158.317 286.608 161.057C319.02 170.852 355.292 198.55 373.628 227.236C386.937 248.056 389.427 263.551 396.083 286.235C400.617 301.665 405.265 317.06 410.028 332.42L491.541 603.482L515.32 682.418C520.941 701.141 525.535 720.039 533.557 737.994C548.819 772.152 565.395 788.757 587.978 747.313C598.421 728.148 605.771 707.727 612.972 686.983C617.273 674.623 620.935 661.676 624.906 649.161C628.081 639.22 631.784 629.315 634.459 619.237C650.984 555.868 656.988 490.215 652.231 424.9C649.943 399.348 646.185 373.949 640.977 348.83C637.415 331.821 631.808 313.681 630.704 296.421C626.425 229.55 685.553 174.059 746.468 158.826C753.565 157.051 761.988 156.624 769.412 156.215Z"/></svg>